<svg width="27" height="17" viewBox="0 0 27 17" fill="none" xmlns="http://www.w3.org/2000/svg">
<path d="M10.1696 9.47949C10.1696 11.6852 9.76502 13.361 8.95578 14.5068C8.14653 15.6455 6.95415 16.2148 5.37863 16.2148C3.83175 16.2148 2.64653 15.6562 1.82296 14.5391C0.999396 13.4147 0.57687 11.7819 0.555386 9.64062V6.83691C0.555386 4.63835 0.963589 2.97331 1.77999 1.8418C2.5964 0.710286 3.78878 0.144531 5.35714 0.144531C6.90402 0.144531 8.08566 0.692383 8.90207 1.78809C9.71847 2.87663 10.141 4.48438 10.1696 6.61133V9.47949ZM8.88058 6.67578C8.88058 4.88542 8.58696 3.5319 7.99972 2.61523C7.41964 1.69857 6.53878 1.24023 5.35714 1.24023C4.19699 1.24023 3.32329 1.68783 2.73605 2.58301C2.14881 3.47819 1.84803 4.79948 1.83371 6.54688V9.61914C1.83371 11.4023 2.13449 12.7666 2.73605 13.7119C3.34477 14.6572 4.22563 15.1299 5.37863 15.1299C6.52446 15.1299 7.391 14.668 7.97824 13.7441C8.57264 12.8203 8.87342 11.4668 8.88058 9.68359V6.67578ZM12.6403 3.36719C12.6403 2.4362 12.9268 1.66634 13.4997 1.05762C14.0798 0.441732 14.8138 0.133789 15.7019 0.133789C16.5899 0.133789 17.3204 0.441732 17.8933 1.05762C18.4734 1.66634 18.7634 2.45768 18.7634 3.43164V4.19434C18.7634 5.111 18.4769 5.87728 17.904 6.49316C17.3383 7.10189 16.6114 7.40625 15.7234 7.40625C14.8425 7.40625 14.1084 7.10547 13.5212 6.50391C12.934 5.90234 12.6403 5.10742 12.6403 4.11914V3.36719ZM13.6823 4.19434C13.6823 4.86035 13.865 5.4082 14.2302 5.83789C14.6026 6.26758 15.1003 6.48242 15.7234 6.48242C16.3321 6.48242 16.8155 6.26758 17.1735 5.83789C17.5388 5.40104 17.7214 4.83887 17.7214 4.15137V3.36719C17.7214 2.70117 17.5352 2.15332 17.1628 1.72363C16.7904 1.28678 16.3034 1.06836 15.7019 1.06836C15.1075 1.06836 14.6205 1.2832 14.2409 1.71289C13.8685 2.14258 13.6823 2.71549 13.6823 3.43164V4.19434ZM20.5144 12.165C20.5144 11.234 20.8008 10.4642 21.3737 9.85547C21.9538 9.24674 22.6843 8.94238 23.5652 8.94238C24.446 8.94238 25.1765 9.24674 25.7566 9.85547C26.3438 10.457 26.6374 11.252 26.6374 12.2402V13.0029C26.6374 13.9339 26.3474 14.7038 25.7673 15.3125C25.1944 15.9212 24.4675 16.2256 23.5866 16.2256C22.7058 16.2256 21.9717 15.9248 21.3845 15.3232C20.8044 14.7145 20.5144 13.9232 20.5144 12.9492V12.165ZM21.5456 13.0029C21.5456 13.6761 21.7282 14.2275 22.0935 14.6572C22.4659 15.0869 22.9636 15.3018 23.5866 15.3018C24.2025 15.3018 24.6895 15.0869 25.0476 14.6572C25.4128 14.2204 25.5954 13.651 25.5954 12.9492V12.165C25.5954 11.4775 25.4092 10.9261 25.0368 10.5107C24.6716 10.0882 24.181 9.87695 23.5652 9.87695C22.9636 9.87695 22.4766 10.0882 22.1042 10.5107C21.7318 10.9333 21.5456 11.499 21.5456 12.208V13.0029ZM16.1316 14.7002L15.3259 14.1846L22.9636 1.95996L23.7693 2.47559L16.1316 14.7002Z" fill="#CC2128"/>
</svg>
