<svg width="39" height="17" viewBox="0 0 39 17" fill="none" xmlns="http://www.w3.org/2000/svg">
<path d="M10.4336 16H0.636719V15.0117L5.99707 8.93164C6.88509 7.90755 7.50098 7.0625 7.84473 6.39648C8.18848 5.73047 8.36035 5.08236 8.36035 4.45215C8.36035 3.46387 8.07031 2.68327 7.49023 2.11035C6.91016 1.53027 6.11165 1.24023 5.09473 1.24023C4.04199 1.24023 3.18978 1.57682 2.53809 2.25C1.89355 2.92318 1.57129 3.79688 1.57129 4.87109H0.292969C0.292969 3.99023 0.489909 3.18815 0.883789 2.46484C1.28483 1.74154 1.85059 1.17578 2.58105 0.767578C3.31868 0.352214 4.15658 0.144531 5.09473 0.144531C6.52702 0.144531 7.64421 0.520508 8.44629 1.27246C9.25553 2.02441 9.66016 3.0485 9.66016 4.34473C9.66016 5.0752 9.43099 5.8737 8.97266 6.74023C8.52148 7.60677 7.72298 8.68815 6.57715 9.98438L2.21582 14.915H10.4336V16ZM22.2715 9.47949C22.2715 11.6852 21.8669 13.361 21.0576 14.5068C20.2484 15.6455 19.056 16.2148 17.4805 16.2148C15.9336 16.2148 14.7484 15.6562 13.9248 14.5391C13.1012 13.4147 12.6787 11.7819 12.6572 9.64062V6.83691C12.6572 4.63835 13.0654 2.97331 13.8818 1.8418C14.6982 0.710286 15.8906 0.144531 17.459 0.144531C19.0059 0.144531 20.1875 0.692383 21.0039 1.78809C21.8203 2.87663 22.2428 4.48438 22.2715 6.61133V9.47949ZM20.9824 6.67578C20.9824 4.88542 20.6888 3.5319 20.1016 2.61523C19.5215 1.69857 18.6406 1.24023 17.459 1.24023C16.2988 1.24023 15.4251 1.68783 14.8379 2.58301C14.2507 3.47819 13.9499 4.79948 13.9355 6.54688V9.61914C13.9355 11.4023 14.2363 12.7666 14.8379 13.7119C15.4466 14.6572 16.3275 15.1299 17.4805 15.1299C18.6263 15.1299 19.4928 14.668 20.0801 13.7441C20.6745 12.8203 20.9753 11.4668 20.9824 9.68359V6.67578ZM24.7422 3.36719C24.7422 2.4362 25.0286 1.66634 25.6016 1.05762C26.1816 0.441732 26.9157 0.133789 27.8037 0.133789C28.6917 0.133789 29.4222 0.441732 29.9951 1.05762C30.5752 1.66634 30.8652 2.45768 30.8652 3.43164V4.19434C30.8652 5.111 30.5788 5.87728 30.0059 6.49316C29.4401 7.10189 28.7132 7.40625 27.8252 7.40625C26.9443 7.40625 26.2103 7.10547 25.623 6.50391C25.0358 5.90234 24.7422 5.10742 24.7422 4.11914V3.36719ZM25.7842 4.19434C25.7842 4.86035 25.9668 5.4082 26.332 5.83789C26.7044 6.26758 27.2021 6.48242 27.8252 6.48242C28.4339 6.48242 28.9173 6.26758 29.2754 5.83789C29.6406 5.40104 29.8232 4.83887 29.8232 4.15137V3.36719C29.8232 2.70117 29.637 2.15332 29.2646 1.72363C28.8923 1.28678 28.4053 1.06836 27.8037 1.06836C27.2093 1.06836 26.7223 1.2832 26.3428 1.71289C25.9704 2.14258 25.7842 2.71549 25.7842 3.43164V4.19434ZM32.6162 12.165C32.6162 11.234 32.9027 10.4642 33.4756 9.85547C34.0557 9.24674 34.7861 8.94238 35.667 8.94238C36.5479 8.94238 37.2783 9.24674 37.8584 9.85547C38.4456 10.457 38.7393 11.252 38.7393 12.2402V13.0029C38.7393 13.9339 38.4492 14.7038 37.8691 15.3125C37.2962 15.9212 36.5693 16.2256 35.6885 16.2256C34.8076 16.2256 34.0736 15.9248 33.4863 15.3232C32.9062 14.7145 32.6162 13.9232 32.6162 12.9492V12.165ZM33.6475 13.0029C33.6475 13.6761 33.8301 14.2275 34.1953 14.6572C34.5677 15.0869 35.0654 15.3018 35.6885 15.3018C36.3044 15.3018 36.7913 15.0869 37.1494 14.6572C37.5146 14.2204 37.6973 13.651 37.6973 12.9492V12.165C37.6973 11.4775 37.5111 10.9261 37.1387 10.5107C36.7734 10.0882 36.2829 9.87695 35.667 9.87695C35.0654 9.87695 34.5785 10.0882 34.2061 10.5107C33.8337 10.9333 33.6475 11.499 33.6475 12.208V13.0029ZM28.2334 14.7002L27.4277 14.1846L35.0654 1.95996L35.8711 2.47559L28.2334 14.7002Z" fill="#CC2128"/>
</svg>
