<svg width="43" height="19" viewBox="0 0 43 19" fill="none" xmlns="http://www.w3.org/2000/svg">
<path d="M3.38867 7.48145H4.7207C5.45833 7.48145 6.10286 7.35254 6.6543 7.09473C7.20573 6.82975 7.62467 6.47168 7.91113 6.02051C8.20475 5.56217 8.35156 5.03581 8.35156 4.44141C8.35156 3.4388 8.06868 2.65462 7.50293 2.08887C6.93717 1.52311 6.12435 1.24023 5.06445 1.24023C4.06185 1.24023 3.23828 1.53743 2.59375 2.13184C1.95638 2.71908 1.6377 3.49609 1.6377 4.46289H0.348633C0.348633 3.65365 0.552734 2.91602 0.960938 2.25C1.36914 1.57682 1.9349 1.05762 2.6582 0.692383C3.38151 0.327148 4.18359 0.144531 5.06445 0.144531C6.48242 0.144531 7.59961 0.53125 8.41602 1.30469C9.23242 2.07812 9.64062 3.13802 9.64062 4.48438C9.64062 5.23633 9.40072 5.93099 8.9209 6.56836C8.44824 7.19857 7.79655 7.67122 6.96582 7.98633C7.93978 8.25846 8.67741 8.72754 9.17871 9.39355C9.68001 10.0524 9.93066 10.8402 9.93066 11.7568C9.93066 13.096 9.49382 14.1738 8.62012 14.9902C7.74642 15.8066 6.5791 16.2148 5.11816 16.2148C4.18717 16.2148 3.33138 16.0286 2.55078 15.6562C1.77734 15.2839 1.17578 14.7646 0.746094 14.0986C0.323568 13.4255 0.112305 12.6449 0.112305 11.7568H1.40137C1.40137 12.7523 1.7487 13.5651 2.44336 14.1953C3.13802 14.8184 4.02962 15.1299 5.11816 15.1299C6.22819 15.1299 7.09115 14.847 7.70703 14.2812C8.33008 13.7083 8.6416 12.8812 8.6416 11.7998C8.6416 10.7542 8.30501 9.95573 7.63184 9.4043C6.96582 8.85286 5.98112 8.57715 4.67773 8.57715H3.38867V7.48145ZM12.6699 18.9219L11.9072 18.3633C12.5589 17.4896 12.8955 16.5837 12.917 15.6455V13.9805H14.1738V15.3232C14.1738 16.8128 13.6725 18.0124 12.6699 18.9219ZM17.8154 7.98633L18.5781 0.359375H26.3984V1.55176H19.6846L19.1367 6.83691C19.9746 6.264 20.9557 5.97754 22.0801 5.97754C23.4909 5.97754 24.6152 6.43587 25.4531 7.35254C26.291 8.26921 26.71 9.49023 26.71 11.0156C26.71 12.6628 26.3018 13.9411 25.4854 14.8506C24.6689 15.7601 23.5195 16.2148 22.0371 16.2148C20.6764 16.2148 19.5736 15.8353 18.7285 15.0762C17.8835 14.3171 17.4001 13.2536 17.2783 11.8857H18.5137C18.6354 12.9528 18.9971 13.762 19.5986 14.3135C20.2002 14.8577 21.013 15.1299 22.0371 15.1299C23.1543 15.1299 23.9958 14.7754 24.5615 14.0664C25.1344 13.3574 25.4209 12.3477 25.4209 11.0371C25.4209 9.89128 25.1022 8.95671 24.4648 8.2334C23.8275 7.51009 22.9574 7.14844 21.8545 7.14844C21.2458 7.14844 20.7158 7.22721 20.2646 7.38477C19.8135 7.53516 19.3372 7.83236 18.8359 8.27637L17.8154 7.98633ZM28.8477 3.36719C28.8477 2.4362 29.1341 1.66634 29.707 1.05762C30.2871 0.441732 31.0212 0.133789 31.9092 0.133789C32.7972 0.133789 33.5277 0.441732 34.1006 1.05762C34.6807 1.66634 34.9707 2.45768 34.9707 3.43164V4.19434C34.9707 5.111 34.6842 5.87728 34.1113 6.49316C33.5456 7.10189 32.8187 7.40625 31.9307 7.40625C31.0498 7.40625 30.3158 7.10547 29.7285 6.50391C29.1413 5.90234 28.8477 5.10742 28.8477 4.11914V3.36719ZM29.8896 4.19434C29.8896 4.86035 30.0723 5.4082 30.4375 5.83789C30.8099 6.26758 31.3076 6.48242 31.9307 6.48242C32.5394 6.48242 33.0228 6.26758 33.3809 5.83789C33.7461 5.40104 33.9287 4.83887 33.9287 4.15137V3.36719C33.9287 2.70117 33.7425 2.15332 33.3701 1.72363C32.9977 1.28678 32.5107 1.06836 31.9092 1.06836C31.3148 1.06836 30.8278 1.2832 30.4482 1.71289C30.0758 2.14258 29.8896 2.71549 29.8896 3.43164V4.19434ZM36.7217 12.165C36.7217 11.234 37.0081 10.4642 37.5811 9.85547C38.1611 9.24674 38.8916 8.94238 39.7725 8.94238C40.6533 8.94238 41.3838 9.24674 41.9639 9.85547C42.5511 10.457 42.8447 11.252 42.8447 12.2402V13.0029C42.8447 13.9339 42.5547 14.7038 41.9746 15.3125C41.4017 15.9212 40.6748 16.2256 39.7939 16.2256C38.9131 16.2256 38.179 15.9248 37.5918 15.3232C37.0117 14.7145 36.7217 13.9232 36.7217 12.9492V12.165ZM37.7529 13.0029C37.7529 13.6761 37.9355 14.2275 38.3008 14.6572C38.6732 15.0869 39.1709 15.3018 39.7939 15.3018C40.4098 15.3018 40.8968 15.0869 41.2549 14.6572C41.6201 14.2204 41.8027 13.651 41.8027 12.9492V12.165C41.8027 11.4775 41.6165 10.9261 41.2441 10.5107C40.8789 10.0882 40.3883 9.87695 39.7725 9.87695C39.1709 9.87695 38.6839 10.0882 38.3115 10.5107C37.9391 10.9333 37.7529 11.499 37.7529 12.208V13.0029ZM32.3389 14.7002L31.5332 14.1846L39.1709 1.95996L39.9766 2.47559L32.3389 14.7002Z" fill="#CC2128"/>
</svg>
