<svg width="51" height="17" viewBox="0 0 51 17" fill="none" xmlns="http://www.w3.org/2000/svg">
<path d="M10.3643 4.3877C10.3643 5.19694 10.1279 5.92383 9.65527 6.56836C9.18262 7.20573 8.55957 7.6748 7.78613 7.97559C8.68848 8.28353 9.41178 8.78125 9.95605 9.46875C10.5003 10.1562 10.7725 10.9512 10.7725 11.8535C10.7725 13.1927 10.3177 14.2562 9.4082 15.0439C8.4987 15.8245 7.29557 16.2148 5.79883 16.2148C4.28776 16.2148 3.07747 15.8245 2.16797 15.0439C1.26562 14.2633 0.814453 13.1999 0.814453 11.8535C0.814453 10.9655 1.07585 10.1742 1.59863 9.47949C2.12142 8.78483 2.83757 8.28353 3.74707 7.97559C2.97363 7.6748 2.35775 7.20573 1.89941 6.56836C1.44108 5.92383 1.21191 5.19694 1.21191 4.3877C1.21191 3.09147 1.62728 2.06022 2.45801 1.29395C3.2959 0.527669 4.40234 0.144531 5.77734 0.144531C7.15234 0.144531 8.25879 0.53125 9.09668 1.30469C9.94173 2.07812 10.3643 3.10579 10.3643 4.3877ZM9.4834 11.8643C9.4834 10.8903 9.13607 10.0918 8.44141 9.46875C7.74674 8.83854 6.85872 8.52344 5.77734 8.52344C4.69596 8.52344 3.81152 8.83138 3.12402 9.44727C2.43652 10.0632 2.09277 10.8688 2.09277 11.8643C2.09277 12.8597 2.42578 13.6546 3.0918 14.249C3.75781 14.8363 4.66016 15.1299 5.79883 15.1299C6.90885 15.1299 7.80046 14.8363 8.47363 14.249C9.14681 13.6618 9.4834 12.8669 9.4834 11.8643ZM9.0752 4.37695C9.0752 3.48177 8.76367 2.73698 8.14062 2.14258C7.52474 1.54102 6.73698 1.24023 5.77734 1.24023C4.80339 1.24023 4.01204 1.53027 3.40332 2.11035C2.80176 2.68327 2.50098 3.4388 2.50098 4.37695C2.50098 5.29362 2.80176 6.03125 3.40332 6.58984C4.01204 7.14844 4.80697 7.42773 5.78809 7.42773C6.75488 7.42773 7.54264 7.14844 8.15137 6.58984C8.76725 6.02409 9.0752 5.28646 9.0752 4.37695ZM27.8418 4.37695V16H26.5527V5.4834H21.7939L21.5898 9.83398C21.5039 11.4453 21.3428 12.6771 21.1064 13.5293C20.8701 14.3743 20.5192 14.9974 20.0537 15.3984C19.5882 15.7995 18.9688 16 18.1953 16H17.7012V14.8613L18.0986 14.8398C18.8363 14.8255 19.3662 14.4674 19.6885 13.7656C20.0107 13.0638 20.222 11.8105 20.3223 10.0059L20.5586 4.37695H27.8418ZM35.8018 16.2148C34.8135 16.2148 33.9183 15.9714 33.1162 15.4844C32.3213 14.9974 31.7018 14.3206 31.2578 13.4541C30.8138 12.5804 30.5918 11.6029 30.5918 10.5215V10.0596C30.5918 8.94238 30.8066 7.9362 31.2363 7.04102C31.6732 6.14583 32.2783 5.44401 33.0518 4.93555C33.8252 4.41992 34.6631 4.16211 35.5654 4.16211C36.9762 4.16211 38.0934 4.64551 38.917 5.6123C39.7477 6.57194 40.1631 7.88607 40.1631 9.55469V10.2744H31.8701V10.5215C31.8701 11.8392 32.2461 12.9385 32.998 13.8193C33.7572 14.693 34.7096 15.1299 35.8555 15.1299C36.543 15.1299 37.1481 15.0046 37.6709 14.7539C38.2008 14.5033 38.6807 14.1022 39.1104 13.5508L39.916 14.1631C38.9707 15.5309 37.5993 16.2148 35.8018 16.2148ZM35.5654 5.25781C34.5986 5.25781 33.7822 5.6123 33.1162 6.32129C32.4574 7.03027 32.0563 7.98275 31.9131 9.17871H38.8848V9.03906C38.849 7.92188 38.5303 7.01237 37.9287 6.31055C37.3271 5.60872 36.5394 5.25781 35.5654 5.25781ZM50.8838 5.47266H46.6514V16H45.3623V5.47266H41.291V4.37695H50.8838V5.47266Z" fill="#CC2128"/>
</svg>
