<svg width="32" height="32" viewBox="0 0 32 32" fill="none" xmlns="http://www.w3.org/2000/svg">
<path d="M29.3333 2.13333H28.2667V0.533332C28.2667 0.238799 28.0279 0 27.7333 0C27.4388 0 27.2 0.238799 27.2 0.533332V2.13333H22.9333V0.533332C22.9333 0.238799 22.6945 0 22.4 0C22.1055 0 21.8667 0.238799 21.8667 0.533332V2.13333H17.6V0.533332C17.6 0.238799 17.3612 0 17.0667 0C16.7721 0 16.5333 0.238799 16.5333 0.533332V2.13333H12.2667V0.533332C12.2667 0.238799 12.0279 0 11.7334 0C11.4388 0 11.2 0.238799 11.2 0.533332V2.13333H6.93337V0.533332C6.93337 0.238799 6.69457 0 6.40003 0C6.1055 0 5.8667 0.238799 5.8667 0.533332V2.13333H4.80004C3.32804 2.13506 2.13511 3.32799 2.13338 4.79999V17.842C-0.762417 21.1142 -0.70355 26.0494 2.26938 29.2516C2.41738 29.4171 2.57444 29.5743 2.73978 29.7225L2.74458 29.7273H2.74778C5.94917 32.7018 10.8849 32.762 14.1579 29.8665H29.3333C30.8053 29.8648 31.9982 28.6719 32 27.1999V4.79992C31.9982 3.32793 30.8053 2.13506 29.3333 2.13333ZM13.6306 28.9431C10.7598 31.5992 6.32763 31.5963 3.46024 28.9364C3.31844 28.8091 3.18364 28.6741 3.05651 28.5321C0.250114 25.4987 0.434114 20.7646 3.46751 17.9581C6.5009 15.1516 11.2352 15.3356 14.0416 18.3691C16.8481 21.4025 16.6641 26.1367 13.6306 28.9431ZM30.9333 27.1999C30.9333 28.0836 30.217 28.7999 29.3333 28.7999H15.1893C15.2544 28.7194 15.3115 28.6335 15.3728 28.5509C15.4341 28.4682 15.4869 28.4005 15.5408 28.3226C15.6597 28.1514 15.7707 27.9749 15.8763 27.7951C15.9072 27.7418 15.9419 27.6933 15.9712 27.6405C16.1027 27.4065 16.2227 27.1667 16.3312 26.921C16.3589 26.8586 16.3813 26.7941 16.4075 26.7311C16.4848 26.5455 16.5573 26.3578 16.6208 26.1674C16.6512 26.0778 16.6773 25.9871 16.704 25.8965C16.7573 25.7253 16.8016 25.5525 16.8416 25.3781C16.8635 25.2826 16.8848 25.1877 16.904 25.0911C16.9392 24.9087 16.9675 24.7242 16.9909 24.5386C17.0016 24.4533 17.0155 24.3685 17.024 24.2826C17.0501 24.0122 17.0667 23.7402 17.0667 23.4666C17.0611 18.7561 13.2439 14.9389 8.53336 14.9333C8.25976 14.9333 7.98776 14.9498 7.71736 14.976C7.6315 14.9845 7.5467 14.9984 7.46083 15.009C7.27577 15.033 7.09177 15.0624 6.90883 15.096C6.8123 15.1152 6.71683 15.1365 6.62137 15.1584C6.4475 15.1986 6.27557 15.2442 6.10564 15.2954C6.0139 15.3226 5.92217 15.3488 5.8315 15.3792C5.6443 15.4421 5.45817 15.5136 5.2779 15.5888C5.2107 15.6165 5.14297 15.6421 5.07684 15.6693C4.83364 15.776 4.59684 15.896 4.36324 16.0266C4.30404 16.0597 4.24804 16.0981 4.18937 16.1333C4.01711 16.2357 3.84751 16.3418 3.68217 16.4533C3.60057 16.5098 3.52217 16.5706 3.44217 16.6298C3.36217 16.689 3.27844 16.7466 3.20004 16.8106V8.53332H30.9333V27.1999ZM30.9333 7.46665H3.20004V4.79999C3.20004 3.91633 3.91637 3.19999 4.80004 3.19999H5.8667V4.79999C5.8667 5.09452 6.1055 5.33332 6.40003 5.33332C6.69457 5.33332 6.93337 5.09452 6.93337 4.79999V3.19999H11.2V4.79999C11.2 5.09452 11.4388 5.33332 11.7334 5.33332C12.0279 5.33332 12.2667 5.09452 12.2667 4.79999V3.19999H16.5333V4.79999C16.5333 5.09452 16.7721 5.33332 17.0667 5.33332C17.3612 5.33332 17.6 5.09452 17.6 4.79999V3.19999H21.8667V4.79999C21.8667 5.09452 22.1055 5.33332 22.4 5.33332C22.6945 5.33332 22.9333 5.09452 22.9333 4.79999V3.19999H27.2V4.79999C27.2 5.09452 27.4388 5.33332 27.7333 5.33332C28.0279 5.33332 28.2667 5.09452 28.2667 4.79999V3.19999H29.3333C30.217 3.19999 30.9333 3.91633 30.9333 4.79999V7.46665Z" fill="#CC2128"/>
<path d="M8.53215 17.5996C8.23762 17.5996 7.99882 17.8384 7.99882 18.1329V22.9329H5.33216C5.03763 22.9329 4.79883 23.1717 4.79883 23.4663C4.79883 23.7608 5.03763 23.9996 5.33216 23.9996H8.53215C8.82669 23.9996 9.06549 23.7608 9.06549 23.4663V18.1329C9.06549 17.8383 8.82669 17.5996 8.53215 17.5996Z" fill="#CC2128"/>
</svg>
