<svg width="120" height="120" viewBox="0 0 120 120" fill="none" xmlns="http://www.w3.org/2000/svg">
<circle cx="60" cy="60" r="33" fill="white"/>
<path d="M57.8797 43.9356L55.2257 47.6518V48.7744H62.4838V43.9356H57.8797ZM61.5162 47.8067H56.3043L58.3783 44.9035H61.5162V47.8067Z" fill="#DC4343"/>
<path d="M62.9676 43.9356V48.7743H70.2257V47.6518L67.5717 43.9357L62.9676 43.9356ZM63.9355 47.8065V44.9033H67.0734L69.1473 47.8065H63.9355Z" fill="#DC4343"/>
<path d="M62.4839 49.258H61.0322V50.2258H62.4839V49.258Z" fill="#DC4343"/>
<path d="M53.7742 57.0002C54.5745 57.0002 55.2259 56.3488 55.2259 55.5485C55.2259 54.7482 54.5745 54.0969 53.7742 54.0969C52.9739 54.0969 52.3226 54.7482 52.3226 55.5485C52.3226 56.3489 52.9739 57.0002 53.7742 57.0002ZM53.7742 55.0645C54.0414 55.0645 54.2581 55.2813 54.2581 55.5484C54.2581 55.8156 54.0413 56.0323 53.7742 56.0323C53.5071 56.0323 53.2903 55.8156 53.2903 55.5484C53.2903 55.2813 53.5071 55.0645 53.7742 55.0645Z" fill="#DC4343"/>
<path d="M75.5484 56.0331C76.7479 56.0331 77 55.2434 77 54.5814V50.2267C77 49.0272 76.0216 47.9637 75.1816 47.8219L73.2477 47.338C72.7609 47.2146 72.4793 47.0244 72.0709 46.5585L69.6394 43.1545C69.0151 42.3566 68.3004 42.001 67.3225 42.001H58.129C57.1506 42.001 56.4354 42.3566 55.8002 43.1715L53.4093 46.5221C52.9748 47.0225 52.6434 47.2499 52.2437 47.3302L49.3211 47.8174C47.9329 48.1065 47 49.2691 47 50.7105V54.0975C47 55.1466 47.8865 56.0331 48.9355 56.0331H50.4259C50.5343 56.786 50.8889 57.46 51.4086 57.9686H47V61.8395H55.6366L60.3543 63.2912L55.5674 64.764L55.5838 65.694L60.1385 66.9201L55.6453 68.1298H47V72.0008H76.9999V68.1298H68.3546L63.8614 66.9201L68.4161 65.694L68.4325 64.764L63.6456 63.2912L68.3633 61.8395H76.9999V57.9686H72.5913C73.1115 57.46 73.4657 56.786 73.5741 56.0331H75.5484ZM51.3548 55.5493C51.3548 54.2152 52.4401 53.1299 53.7742 53.1299C55.1083 53.1299 56.1936 54.2152 56.1936 55.5493C56.1936 56.8834 55.1083 57.9687 53.7742 57.9687C52.4401 57.9687 51.3548 56.8833 51.3548 55.5493ZM57.1225 56.0331H66.8774C66.9858 56.786 67.3404 57.46 67.86 57.9686H56.1398C56.66 57.4601 57.0141 56.7861 57.1225 56.0331ZM76.0321 69.0975V71.033H47.9678V69.0975H76.0321ZM64.6317 68.1298H59.3682L61.9999 67.4215L64.6317 68.1298ZM66.5445 65.1957L61.9999 66.4189L57.4554 65.1952L61.9999 63.7973L66.5445 65.1957ZM61.9999 62.7845L58.9279 61.8395H65.0721L61.9999 62.7845ZM76.0321 58.9363V60.8719H47.9678V58.9363H76.0321ZM70.2258 57.9687C68.8917 57.9687 67.8064 56.8834 67.8064 55.5493C67.8064 54.2152 68.8917 53.1299 70.2258 53.1299C71.5599 53.1299 72.6452 54.2152 72.6452 55.5493C72.6452 56.8833 71.5599 57.9687 70.2258 57.9687ZM70.2257 52.1622C68.5229 52.1622 67.1134 53.4271 66.8774 55.0654H57.1225C56.8864 53.4271 55.4769 52.1622 53.7742 52.1622C52.0715 52.1622 50.6619 53.4271 50.4259 55.0654H48.9355C48.4201 55.0654 47.9678 54.613 47.9678 54.0978V51.6784H48.9355V52.6461H49.9033V51.6784C49.9033 51.0541 49.5597 50.7106 48.9355 50.7106H47.9678C47.9678 49.5135 48.7686 48.9208 49.4988 48.7684L52.4175 48.2817C53.0494 48.1548 53.5638 47.8186 54.1677 47.1208L56.5749 43.7502C57.02 43.1807 57.4415 42.9688 58.129 42.9688H67.3225C68.0096 42.9688 68.4311 43.1808 68.8646 43.7339L71.3124 47.1572C71.7867 47.703 72.2366 48.0805 73.0123 48.2764L74.9836 48.768C75.3958 48.8391 76.0321 49.4966 76.0321 50.2268V54.5816C76.0321 54.9972 75.964 55.0655 75.5483 55.0655H73.574C73.338 53.4271 71.9285 52.1622 70.2257 52.1622Z" fill="#DC4343"/>
<path d="M70.2257 54.0969C69.4254 54.0969 68.774 54.7482 68.774 55.5485C68.774 56.3488 69.4254 57.0002 70.2257 57.0002C71.026 57.0002 71.6773 56.3488 71.6773 55.5485C71.6773 54.7482 71.0261 54.0969 70.2257 54.0969ZM70.2257 56.0323C69.9585 56.0323 69.7418 55.8156 69.7418 55.5484C69.7418 55.2813 69.9585 55.0645 70.2257 55.0645C70.4928 55.0645 70.7095 55.2813 70.7095 55.5484C70.7095 55.8156 70.4928 56.0323 70.2257 56.0323Z" fill="#DC4343"/>
<path d="M51.8387 62.8066H50.871V65.226H51.8387V62.8066Z" fill="#DC4343"/>
<path d="M49.9033 63.7741H48.9355V67.1612H49.9033V63.7741Z" fill="#DC4343"/>
<path d="M74.5806 62.8066H73.6128V64.7421H74.5806V62.8066Z" fill="#DC4343"/>
<path d="M72.6451 62.8066H71.6773V67.1614H72.6451V62.8066Z" fill="#DC4343"/>
<path d="M65.8709 53.1291H64.9031V54.0968H65.8709V53.1291Z" fill="#DC4343"/>
<path d="M63.9355 53.1291H62.9677V54.0968H63.9355V53.1291Z" fill="#DC4343"/>
<path d="M75.0645 53.1291H74.0967V54.0968H75.0645V53.1291Z" fill="#DC4343"/>
<path d="M49.9033 69.5808H48.9355V70.5486H49.9033V69.5808Z" fill="#DC4343"/>
<path d="M51.8387 69.5808H50.871V70.5486H51.8387V69.5808Z" fill="#DC4343"/>
<circle opacity="0.6" cx="60" cy="60" r="37.5" stroke="#CBD3DF"/>
<circle opacity="0.4" cx="60" cy="60" r="59.5" stroke="#CBD3DF"/>
</svg>
