<svg width="32" height="31" viewBox="0 0 32 31" fill="none" xmlns="http://www.w3.org/2000/svg">
<path d="M20.7543 0H3.4668V31H28.5335V7.5361L20.7543 0ZM21.0668 1.7639L26.7127 7.23333H21.0668V1.7639ZM4.53346 29.9667V1.03333H20.0001V8.26667H27.4668V29.9667H4.53346Z" fill="#CC2128"/>
<path d="M22.6673 10.8496H14.1339C13.8395 10.8496 13.6006 11.0806 13.6006 11.3663C13.6006 11.652 13.8395 11.8829 14.1339 11.8829H22.6673C22.9617 11.8829 23.2006 11.652 23.2006 11.3663C23.2006 11.0806 22.9617 10.8496 22.6673 10.8496Z" fill="#CC2128"/>
<path d="M12.2001 9.41222L9.9062 11.1901L9.17714 10.4838C8.9686 10.2818 8.63153 10.2818 8.423 10.4838C8.21447 10.6858 8.21447 11.0123 8.423 11.2144L9.48967 12.2477C9.59313 12.3479 9.72967 12.3991 9.86673 12.3991C9.98407 12.3991 10.1019 12.3619 10.1995 12.2859L12.8662 10.2193C13.0966 10.0405 13.1334 9.7155 12.9494 9.49282C12.7659 9.26962 12.4299 9.23397 12.2001 9.41222Z" fill="#CC2128"/>
<path d="M22.6673 16.5332H14.1339C13.8395 16.5332 13.6006 16.7642 13.6006 17.0499C13.6006 17.3356 13.8395 17.5665 14.1339 17.5665H22.6673C22.9617 17.5665 23.2006 17.3356 23.2006 17.0499C23.2006 16.7642 22.9617 16.5332 22.6673 16.5332Z" fill="#CC2128"/>
<path d="M12.2001 15.0958L9.9062 16.8737L9.17714 16.1674C8.9686 15.9654 8.63153 15.9654 8.423 16.1674C8.21447 16.3694 8.21447 16.6959 8.423 16.8979L9.48967 17.9313C9.59313 18.0315 9.72967 18.0827 9.86673 18.0827C9.98407 18.0827 10.1019 18.0455 10.1995 17.9695L12.8662 15.9028C13.0966 15.7241 13.1334 15.3991 12.9494 15.1764C12.7659 14.9532 12.4299 14.9176 12.2001 15.0958Z" fill="#CC2128"/>
<path d="M22.6673 22.2168H14.1339C13.8395 22.2168 13.6006 22.4477 13.6006 22.7335C13.6006 23.0192 13.8395 23.2501 14.1339 23.2501H22.6673C22.9617 23.2501 23.2006 23.0192 23.2006 22.7335C23.2006 22.4477 22.9617 22.2168 22.6673 22.2168Z" fill="#CC2128"/>
<path d="M12.2001 20.7794L9.9062 22.5573L9.17714 21.851C8.9686 21.649 8.63153 21.649 8.423 21.851C8.21447 22.053 8.21447 22.3795 8.423 22.5815L9.48967 23.6149C9.59313 23.7151 9.72967 23.7663 9.86673 23.7663C9.98407 23.7663 10.1019 23.7291 10.1995 23.6531L12.8662 21.5864C13.0966 21.4077 13.1334 21.0827 12.9494 20.86C12.7659 20.6368 12.4299 20.6012 12.2001 20.7794Z" fill="#CC2128"/>
</svg>
