<svg width="32" height="32" viewBox="0 0 32 32" fill="none" xmlns="http://www.w3.org/2000/svg">
<path d="M24.3139 4.89266H22.688V0.998047C22.688 0.761209 22.4945 0.567662 22.2576 0.567662C22.2145 0.567662 22.1727 0.574794 22.1405 0.581238L22.1405 0.581012L22.1356 0.582449L7.60423 4.89313C6.8095 4.94171 6.18973 5.59563 6.18973 6.3918V29.9293C6.18973 30.76 6.86469 31.4284 7.68887 31.4284H24.3139C25.1446 31.4284 25.813 30.7535 25.813 29.9293V6.3918C25.813 5.56105 25.138 4.89266 24.3139 4.89266ZM7.30915 5.87778L7.30949 5.87881L7.36079 5.86367L7.73437 5.75343H24.3139C24.6645 5.75343 24.9522 6.04113 24.9522 6.3918V29.9293C24.9522 30.28 24.6645 30.5677 24.3139 30.5677H7.68887C7.33821 30.5677 7.0505 30.28 7.0505 29.9293V6.3918C7.0505 6.18526 7.14768 5.99739 7.30915 5.87778ZM10.6396 4.88641L21.8272 1.57222V4.88641H10.6396Z" fill="#CC2128" stroke="#CC2128" stroke-width="0.110769"/>
<path d="M21.4072 23.5481H10.5947C10.3579 23.5481 10.1643 23.7417 10.1643 23.9785C10.1643 24.2154 10.3579 24.4089 10.5947 24.4089H21.4072C21.6441 24.4089 21.8376 24.2154 21.8376 23.9785C21.8376 23.7417 21.6441 23.5481 21.4072 23.5481Z" fill="#CC2128" stroke="#CC2128" stroke-width="0.110769"/>
<path d="M18.4697 26.0677H13.5322C13.2954 26.0677 13.1018 26.2612 13.1018 26.498C13.1018 26.7349 13.2954 26.9284 13.5322 26.9284H18.4697C18.7066 26.9284 18.9001 26.7349 18.9001 26.498C18.9001 26.2612 18.7066 26.0677 18.4697 26.0677Z" fill="#CC2128" stroke="#CC2128" stroke-width="0.110769"/>
<path d="M21.6984 15.2434V15.2433C21.692 12.0941 19.1424 9.54422 15.9992 9.54422C12.8562 9.54422 10.3001 12.094 10.3001 15.2434C10.3001 18.3927 12.8499 20.9425 15.9992 20.9425C19.1486 20.9425 21.6984 18.3927 21.6984 15.2434ZM12.8657 17.4192C12.581 17.6047 12.317 17.816 12.069 18.053C11.5655 17.3509 11.2598 16.5271 11.1843 15.6675H12.5775C12.6054 16.2591 12.7015 16.8502 12.8657 17.4192ZM14.087 19.6763C13.5447 19.4432 13.0514 19.1132 12.6343 18.7059C12.804 18.5403 12.9832 18.3919 13.1757 18.2531C13.4058 18.7723 13.7121 19.2505 14.087 19.6763ZM19.421 15.6737H20.8141C20.7385 16.5272 20.433 17.3506 19.9298 18.0525C19.686 17.8153 19.4172 17.6042 19.1327 17.4192C19.2969 16.8505 19.393 16.2651 19.421 15.6737ZM13.1695 12.2274C12.9769 12.0885 12.7978 11.9402 12.628 11.7746C13.0495 11.3631 13.5424 11.0373 14.0799 10.8052C13.7054 11.2307 13.3994 11.7086 13.1695 12.2274ZM11.1843 14.813C11.2597 13.9476 11.5655 13.129 12.0694 12.4269C12.3168 12.6589 12.5807 12.8752 12.8657 13.0612C12.7015 13.6302 12.6054 14.2213 12.5775 14.813H11.1843ZM13.9205 17.8077C14.4393 17.5584 15.0007 17.4073 15.5688 17.3595V19.8425C14.8468 19.37 14.2848 18.6679 13.9205 17.8077ZM15.5688 15.6675V16.4978C14.9019 16.546 14.2474 16.7173 13.6426 16.9904C13.5331 16.5581 13.4653 16.1155 13.439 15.6675H15.5688ZM15.5688 14.8067H13.439C13.4653 14.3588 13.5331 13.9163 13.6425 13.4841C14.2529 13.7626 14.9022 13.9285 15.5688 13.9764V14.8067ZM15.5688 10.6384V13.1148C14.9961 13.0667 14.44 12.9105 13.9209 12.6662C14.2908 11.8067 14.8526 11.1105 15.5688 10.6384ZM19.3702 11.7749C19.2001 11.9414 19.0211 12.0938 18.8294 12.2284C18.6001 11.7103 18.2949 11.2286 17.9213 10.8024C18.4575 11.0395 18.9494 11.3688 19.3702 11.7749ZM16.4296 13.1211V10.6387C17.1518 11.1163 17.714 11.813 18.0839 12.6729C17.565 12.9222 17.0033 13.0733 16.4296 13.1211ZM16.4296 14.8067V13.9827C17.0965 13.9348 17.7513 13.7689 18.3622 13.4903C18.4715 13.9223 18.5394 14.3643 18.5657 14.8067H16.4296ZM16.4234 15.6675H18.5595C18.5335 16.1106 18.4706 16.5526 18.3566 16.9842C17.7455 16.7054 17.0905 16.5394 16.4234 16.4916V15.6675ZM16.4296 19.8425V17.3594C17.0033 17.4072 17.565 17.5583 18.0839 17.8076C17.7139 18.668 17.1516 19.37 16.4296 19.8425ZM19.3699 18.7002C18.9484 19.1119 18.4556 19.442 17.9185 19.6751C18.2931 19.2483 18.5991 18.7659 18.8289 18.2469C19.0207 18.386 19.1998 18.5383 19.3699 18.7002ZM20.8141 14.8067H19.421C19.393 14.2154 19.2969 13.6299 19.1327 13.0612C19.4177 12.8752 19.6816 12.6589 19.929 12.4269C20.4328 13.1289 20.7386 13.9472 20.8141 14.8067Z" fill="#CC2128" stroke="#CC2128" stroke-width="0.110769"/>
</svg>
