<svg width="120" height="120" viewBox="0 0 120 120" fill="none" xmlns="http://www.w3.org/2000/svg">
<circle cx="60" cy="60" r="33" fill="white"/>
<path d="M44.0949 46.7518L46.0956 50.2529C46.1631 50.3712 46.2761 50.4568 46.4082 50.4899L48.2748 50.9566L54.6769 57.3586L55.3842 56.6515L48.882 50.1494C48.818 50.0852 48.7377 50.0397 48.6499 50.0177L46.8563 49.5677L45.1529 46.5851L46.6133 45.1247L49.5972 46.8298L50.0474 48.6233C50.0692 48.7114 50.1149 48.7918 50.1789 48.8558L56.6811 55.3581L57.3883 54.6507L50.9862 48.2486L50.5196 46.3831C50.4865 46.2508 50.4009 46.1376 50.2826 46.0699L46.7812 44.0694C46.586 43.9582 46.3403 43.9912 46.181 44.1498L44.1805 46.1506C44.0196 46.3088 43.9846 46.5549 44.0949 46.7518Z" fill="#DC4343"/>
<path d="M64.8895 53.8573L53.8859 64.8611L53.1786 64.1537L64.1823 53.1502L64.8895 53.8573Z" fill="#DC4343"/>
<path d="M51.96 65.2502C51.8695 65.0995 51.707 65.0076 51.5312 65.0076H48.5303C48.3548 65.0076 48.192 65.0995 48.1017 65.2502L46.6012 67.7509C46.5059 67.9093 46.5059 68.1075 46.6012 68.2661L48.1017 70.7669C48.192 70.9173 48.3548 71.0095 48.5303 71.0095H51.5312C51.707 71.0095 51.8695 70.9173 51.96 70.7669L53.4604 68.2661C53.5557 68.1075 53.5557 67.9093 53.4604 67.7509L51.96 65.2502ZM51.2483 70.0091H48.8134L47.6131 68.0085L48.8134 66.0077H51.2483L52.4487 68.0085L51.2483 70.0091Z" fill="#DC4343"/>
<path d="M68.0367 56.005C71.3401 56.0161 74.0273 53.347 74.0384 50.0436C74.04 49.5408 73.9783 49.04 73.8546 48.5525C73.788 48.2844 73.5166 48.1213 73.2485 48.1879C73.1604 48.2099 73.0802 48.2554 73.016 48.3194L69.9025 51.4308L67.4322 50.6076L66.6084 48.1379L69.7218 45.0238C69.9171 44.8284 69.9169 44.5117 69.7214 44.3164C69.657 44.252 69.576 44.2064 69.4873 44.1846C66.2837 43.3733 63.0292 45.3125 62.218 48.5159C62.0947 49.0019 62.0332 49.5015 62.0348 50.0029C62.0361 50.3967 62.0766 50.7893 62.1564 51.1749L51.2027 62.1284C50.8171 62.0488 50.4245 62.0083 50.0309 62.0068C46.716 62.0068 44.0288 64.694 44.0288 68.0089C44.0288 71.3236 46.716 74.0108 50.0309 74.0108C53.3456 74.0108 56.0328 71.3236 56.0328 68.0089C56.0315 67.6151 55.9908 67.2225 55.9112 66.8369L58.5335 64.2146L59.6804 65.3615C59.8758 65.5567 60.1923 65.5567 60.3878 65.3615L60.6378 65.1113C60.8571 64.8934 61.2116 64.8934 61.4309 65.1113C61.6501 65.3298 61.6505 65.6845 61.432 65.9036C61.4318 65.9038 61.4314 65.9042 61.4309 65.9047L61.181 66.1546C60.9857 66.3499 60.9857 66.6666 61.181 66.8618L67.1474 72.8283C68.7167 74.412 71.2726 74.4235 72.8563 72.8542C74.4398 71.2849 74.4513 68.7288 72.882 67.1454C72.8736 67.1367 72.8649 67.1281 72.8563 67.1194L66.8898 61.1532C66.6946 60.9579 66.3779 60.9579 66.1826 61.1532L65.9327 61.4031C65.7131 61.6212 65.3588 61.6212 65.1393 61.4031C64.9203 61.1846 64.9197 60.8299 65.1382 60.611C65.1386 60.6106 65.1391 60.6104 65.1393 60.61L65.3895 60.3598C65.5847 60.1645 65.5847 59.8478 65.3895 59.6526L64.2426 58.5057L66.8649 55.8834C67.2505 55.963 67.6431 56.0037 68.0367 56.005ZM70.0019 73.0106C69.6385 73.01 69.2782 72.9443 68.9381 72.8166L72.8444 68.9101C73.4339 70.4782 72.6407 72.2271 71.0726 72.8166C70.7304 72.9452 70.3677 73.011 70.0019 73.0106ZM64.3356 60.0112C63.7817 60.6719 63.8685 61.6566 64.5292 62.2103C65.1098 62.6969 65.9561 62.6965 66.5361 62.2089L72.1491 67.8268C72.21 67.8879 72.267 67.9523 72.3222 68.0178L68.0458 72.2942C67.9801 72.2392 67.9157 72.1822 67.8546 72.1211L62.2373 66.5034C62.7912 65.8427 62.7044 64.858 62.0437 64.3043C61.463 63.8175 60.6166 63.8181 60.0365 64.3055L59.2364 63.5053L63.5352 59.2129L64.3356 60.0112ZM66.3553 54.9807L55.0089 66.3248C54.8844 66.4491 54.8344 66.6295 54.8768 66.8001C55.563 69.4949 53.9347 72.2357 51.2397 72.9217C48.5449 73.6079 45.8041 71.9796 45.1179 69.2846C44.4319 66.5898 46.0602 63.849 48.7552 63.1628C49.5704 62.9554 50.4245 62.9554 51.2397 63.1628C51.4103 63.2045 51.5903 63.1545 51.715 63.0309L63.0587 51.6866C63.1829 51.5623 63.2329 51.3819 63.1901 51.2115C62.5087 48.5482 64.1152 45.8368 66.7785 45.1551C67.2818 45.0265 67.8023 44.9771 68.3209 45.0094L65.6825 47.6488C65.5485 47.7826 65.5016 47.9807 65.5615 48.1604L66.5616 51.1615C66.6116 51.3107 66.7289 51.4279 66.8783 51.4775L69.8794 52.4779C70.0589 52.5378 70.257 52.4911 70.391 52.3573L73.0293 49.7189C73.0353 49.8144 73.0384 49.9089 73.0384 50.0029C73.0524 52.7512 70.836 54.9904 68.0877 55.0046C67.6628 55.0066 67.2394 54.9544 66.8279 54.849C66.6573 54.8064 66.4769 54.8562 66.3526 54.9805L66.3553 54.9807Z" fill="#DC4343"/>
<path d="M69.8914 69.1551L69.184 69.8625L64.1825 64.861L64.8897 64.1537L69.8914 69.1551Z" fill="#DC4343"/>
<circle opacity="0.6" cx="60" cy="60" r="37.5" stroke="#CBD3DF"/>
<circle opacity="0.4" cx="60" cy="60" r="59.5" stroke="#CBD3DF"/>
</svg>
