<svg width="22" height="23" viewBox="0 0 22 23" fill="none" xmlns="http://www.w3.org/2000/svg">
<circle cx="11" cy="11" r="10.25" stroke="#CC2128" stroke-width="1.5"/>
<path d="M12.2227 14.1201H9.93262V16H8.62695V14.1201H7.21191V13.04H8.62695V12.1035H7.21191V11.0303H8.62695V6.04688H12.2979C13.3643 6.04688 14.2096 6.31803 14.834 6.86035C15.4583 7.40267 15.7705 8.13639 15.7705 9.06152C15.7705 10.0322 15.4697 10.7819 14.8682 11.3105C14.2712 11.8346 13.4212 12.099 12.3184 12.1035H9.93262V13.04H12.2227V14.1201ZM9.93262 11.0303H12.2979C13.0042 11.0303 13.542 10.8639 13.9111 10.5312C14.2803 10.1986 14.4648 9.71322 14.4648 9.0752C14.4648 8.49642 14.2734 8.0293 13.8906 7.67383C13.5078 7.3138 12.9906 7.13151 12.3389 7.12695H9.93262V11.0303Z" fill="#CC2128"/>
</svg>
