<svg width="32" height="32" viewBox="0 0 32 32" fill="none" xmlns="http://www.w3.org/2000/svg">
<path d="M28.6255 1.55469H7.93319C6.13739 1.55469 4.67636 3.00206 4.67636 4.77534L4.54301 22.996H0.504807C0.218623 22.996 0 23.249 0 23.5352V26.0428C0 28.3902 1.87854 30.31 4.14574 30.4153V30.4454H21.5708V30.4115C21.7004 30.4168 21.7788 30.4454 21.8679 30.4454H21.8803C24.2983 30.4312 26.2474 28.4603 26.2348 26.0423V10.1053H31.4952C31.7813 10.1053 32 9.84619 32 9.56025V4.95929C32.0033 3.08935 30.4954 1.5681 28.6255 1.55469V1.55469ZM4.37246 29.4089H4.36892C2.52555 29.4089 1.03644 27.8854 1.03644 26.0423V24.0324H17.4899V26.0337C17.4858 27.2002 17.9466 28.3201 18.7702 29.146C18.8578 29.2341 18.9494 29.2794 19.043 29.4089H4.37246ZM25.1983 26.0418C25.1983 27.8854 23.7237 29.4089 21.8795 29.4089H21.8689C20.0157 29.3955 18.522 27.8872 18.5263 26.0339V23.5352C18.5278 23.245 18.2983 23.0061 18.0081 22.996H5.57945L5.7128 4.77888C5.7128 3.57367 6.70875 2.59112 7.93319 2.59112H26.1789C25.5883 3.2389 25.1983 4.05848 25.1983 4.97321V26.0418ZM30.9635 4.9684V9.06886H26.2348V4.9722C26.2348 3.67513 27.3137 2.59112 28.6103 2.59112H28.6247C29.9246 2.60403 30.9696 3.66451 30.9635 4.96461V4.9684Z" fill="#CC2128"/>
<path d="M12.1699 14.3106L14.8417 16.1372C15.016 16.2574 15.2465 16.2574 15.4209 16.1372L18.0846 14.3111C19.0099 13.6797 19.6934 12.3599 19.6934 11.2407V7.54487C19.699 7.34953 19.5912 7.16836 19.4171 7.07954L15.349 5.07853C15.2063 5.00768 15.0388 5.00768 14.8961 5.07853L10.8356 7.07397C10.6615 7.16279 10.554 7.34396 10.5598 7.53931V11.2407C10.5598 12.3599 11.2448 13.6797 12.1699 14.3106ZM11.5962 7.86269L15.1266 6.12079L18.657 7.8675V11.2407C18.657 12.0213 18.1453 13.0143 17.4998 13.4543L15.1205 15.0816L12.7506 13.4545C12.1051 13.014 11.5962 12.0213 11.5962 11.2407V7.86269Z" fill="#CC2128"/>
<path d="M14.2484 12.0237C14.3451 12.1224 14.4771 12.1783 14.6153 12.1791H14.6166C14.7542 12.1785 14.8861 12.1234 14.983 12.0257L17.0445 9.96347C17.2471 9.76104 17.2471 9.4326 17.0447 9.23017C16.8425 9.02749 16.5141 9.02749 16.3117 9.22992L14.6183 10.923L13.9415 10.2395C13.7398 10.0361 13.4116 10.0346 13.2082 10.2362C13.0047 10.4379 13.0035 10.7661 13.2049 10.9695L14.2484 12.0237Z" fill="#CC2128"/>
<path d="M21.5707 17.6191H9.13345C8.84727 17.6191 8.61523 17.8512 8.61523 18.1374C8.61523 18.4235 8.84727 18.6556 9.13345 18.6556H21.5707C21.8569 18.6556 22.0889 18.4235 22.0889 18.1374C22.0889 17.8512 21.8569 17.6191 21.5707 17.6191Z" fill="#CC2128"/>
<path d="M21.5707 20.0156H9.13345C8.84727 20.0156 8.61523 20.2477 8.61523 20.5338C8.61523 20.82 8.84727 21.0521 9.13345 21.0521H21.5707C21.8569 21.0521 22.0889 20.82 22.0889 20.5338C22.0889 20.2477 21.8569 20.0156 21.5707 20.0156Z" fill="#CC2128"/>
</svg>
