<svg width="120" height="120" viewBox="0 0 120 120" fill="none" xmlns="http://www.w3.org/2000/svg">
<circle cx="60" cy="60" r="33" fill="white"/>
<path d="M71.871 57.6288H70.3226V54.2418H67.8983L64.8015 51.9837H61.5484V48.5965H65.6774V47.4674H53.2903V48.5965H57.4193V51.9836H54.1316L50.5187 55.3706H47.6129V58.7576H45.0323V53.6773H44V67.7902H45.0323V63.2741H47.613V67.7902H50.5725L54.1854 70.0483H60.0001V68.9193H54.4599L51.2258 66.8982V56.195L54.5136 53.1127H64.4887L67.2257 55.1082V57.0643H68.258V55.3707H69.2903V68.9191H68.258V70.0482H70.3226V67.2256H71.871V68.3546H76V55.9352H71.871V57.6288ZM47.613 62.1449H45.0323V59.8868H47.613V62.1449ZM50.1936 66.661H48.6451V56.4998H50.1936V66.661ZM60.5161 51.9836H58.4516V48.5965H60.5161V51.9836ZM71.871 66.0965H70.3226V58.7578H71.871V66.0965ZM72.9033 57.0643H74.9678V67.2256H72.9033V57.0643Z" fill="#DC4343"/>
<path d="M64.8589 59.8871H61.0029L63.5836 55.9355H58.6484L55.5515 62.7098H58.7989L57.408 68.0365L64.8589 59.8871ZM57.2221 61.5807L59.2867 57.0646H61.5772L58.9965 61.0162H62.3663L59.4946 64.1571L60.1681 61.5807H57.2221Z" fill="#DC4343"/>
<path d="M51.2257 42.3872H48.129V43.5163H51.2257V42.3872Z" fill="#DC4343"/>
<path d="M47.0967 42.3872H44V43.5163H47.0967V42.3872Z" fill="#DC4343"/>
<path d="M48.129 43.5163L47.0967 43.5163L47.0967 46.9032H48.1289L48.129 43.5163Z" fill="#DC4343"/>
<path d="M48.1289 39H47.0967L47.0967 42.3872L48.129 42.3872L48.1289 39Z" fill="#DC4343"/>
<path d="M73.9356 47.4681V45.21H72.9033V47.4681H73.9356L73.9355 48.597H72.9033V47.4681H70.8387V48.5971L72.9033 48.597V50.8551H73.9356L73.9355 48.597L76 48.5971V47.4681H73.9356Z" fill="#DC4343"/>
<path d="M67.2259 68.9194H64.6452V70.0485H67.2259V68.9194Z" fill="#DC4343"/>
<path d="M63.613 68.9198L64.6452 68.9194L64.6451 66.0972H63.6128L63.613 68.9198H61.0323V70.0489H63.6128V72.8715H64.6451L64.6452 70.0485L63.6128 70.0489L63.613 68.9198Z" fill="#DC4343"/>
<path d="M74.9677 70.6128H73.9354V71.7417H72.9032V72.8708H73.9354V73.9998H74.9677V72.8708H73.9354V71.7417L74.9677 71.7418V72.8708H76V71.7417L74.9677 71.7418V70.6128Z" fill="#DC4343"/>
<circle opacity="0.6" cx="60" cy="60" r="37.5" stroke="#CBD3DF"/>
<circle opacity="0.4" cx="60" cy="60" r="59.5" stroke="#CBD3DF"/>
</svg>
