<svg width="32" height="32" viewBox="0 0 32 32" fill="none" xmlns="http://www.w3.org/2000/svg">
<g clip-path="url(#clip0)">
<path d="M17.3348 16.7514C17.3348 17.001 17.1325 17.2033 16.8829 17.2033H15.917C15.6416 17.2033 15.4184 17.4265 15.4184 17.7019V18.278C15.4184 18.5533 15.1952 18.7765 14.9199 18.7765H14.8243C14.549 18.7765 14.3258 18.5533 14.3258 18.278V17.7019C14.3258 17.4265 14.1026 17.2033 13.8272 17.2033H13.5935C13.3439 17.2033 13.1416 17.001 13.1416 16.7514C13.1416 16.5018 13.3439 16.2995 13.5935 16.2995H13.9339C14.1503 16.2995 14.3258 16.124 14.3258 15.9076C14.3258 15.6912 14.1503 15.5157 13.9339 15.5157H13.5907C13.3427 15.5157 13.1416 15.3147 13.1416 15.0667C13.1416 14.8187 13.3427 14.6176 13.5907 14.6176H13.8272C14.1026 14.6176 14.3258 14.3944 14.3258 14.1191V10.9458C14.3258 10.6705 14.549 10.4473 14.8243 10.4473H17.3977C18.2902 10.4473 18.9976 10.6742 19.5201 11.128C20.0426 11.5819 20.3038 12.1959 20.3038 12.9701C20.3038 13.7824 20.0521 14.4098 19.5487 14.8521C19.0491 15.2907 18.3378 15.5119 17.4149 15.5157H15.8103C15.5939 15.5157 15.4184 15.6912 15.4184 15.9076C15.4184 16.124 15.5939 16.2995 15.8103 16.2995H16.8829C17.1325 16.2995 17.3348 16.5018 17.3348 16.7514ZM15.4184 14.1191C15.4184 14.3944 15.6416 14.6176 15.917 14.6176H17.3977C17.9889 14.6176 18.4389 14.4784 18.7478 14.2C19.0567 13.9216 19.2112 13.5154 19.2112 12.9815C19.2112 12.4972 19.051 12.1062 18.7306 11.8088C18.4103 11.5075 17.9774 11.3549 17.4321 11.3511H15.917C15.6416 11.3511 15.4184 11.5743 15.4184 11.8497V14.1191Z" fill="#CC2128"/>
<path d="M8.76367 14.5978C8.76367 18.8015 12.1714 22.2092 16.3751 22.2092C20.5789 22.2092 23.9866 18.8015 23.9866 14.5978C23.9866 10.394 20.5789 6.98633 16.3751 6.98633C12.1734 6.99094 8.76854 10.3961 8.76367 14.5978ZM16.3751 8.03611C19.9991 8.03611 22.9368 10.9738 22.9368 14.5978C22.9368 18.2218 19.9991 21.1595 16.3751 21.1595C12.7511 21.1595 9.81346 18.2218 9.81346 14.5978C9.81756 10.9756 12.7529 8.04021 16.3751 8.03611Z" fill="#CC2128"/>
<path d="M26.5734 23.5034L22.4617 25.4461C21.894 24.3902 20.805 23.7182 19.6066 23.6844L15.8108 23.5801C15.2098 23.5629 14.6201 23.4106 14.0857 23.1346L13.6995 22.9344C11.7219 21.9036 9.36476 21.9062 7.38924 22.9411L7.41333 22.0661C7.42127 21.7762 7.19291 21.5348 6.90304 21.5269L2.74081 21.4123C2.45094 21.4044 2.20977 21.6327 2.20182 21.9226L1.9504 31.0564C1.94245 31.3463 2.17081 31.5877 2.46068 31.5957L6.62291 31.7102H6.63727C6.92175 31.7102 7.15447 31.4839 7.16216 31.1997L7.1742 30.7627L8.25551 30.1838C8.67994 29.9554 9.17612 29.9011 9.63976 30.0323L16.0969 31.8445C16.1081 31.8479 16.1194 31.8504 16.1309 31.853C16.5977 31.9507 17.0733 31.9996 17.5501 31.9993C18.5599 31.9999 19.5579 31.7823 20.4757 31.3609C20.4982 31.3507 20.52 31.3386 20.5408 31.325L29.903 25.2693C30.1362 25.1183 30.2115 24.8121 30.0749 24.5701C29.3799 23.3368 27.8383 22.867 26.5734 23.5034ZM3.01428 30.5608L3.23674 22.4762L6.34945 22.5618L6.12698 30.6466L3.01428 30.5608ZM20.0028 30.4234C18.8625 30.938 17.589 31.08 16.3634 30.8296L9.92374 29.022C9.19894 28.8172 8.42313 28.902 7.76009 29.2585L7.20752 29.5545L7.3554 24.1793C9.10641 23.0147 11.3521 22.895 13.2169 23.8666L13.6031 24.0668C14.2782 24.4153 15.0227 24.6075 15.7821 24.6296L19.5781 24.7339C20.6443 24.7646 21.5498 25.5238 21.7661 26.5685L16.112 26.4124C15.8221 26.4044 15.5809 26.633 15.5727 26.9227C15.5648 27.2125 15.7934 27.454 16.083 27.4619L22.3228 27.6336H22.3374C22.6216 27.6334 22.8541 27.4071 22.8618 27.1231C22.8682 26.895 22.8513 26.6666 22.811 26.4421L27.0284 24.4494C27.0325 24.4476 27.0366 24.4456 27.0407 24.4435C27.6389 24.1408 28.3621 24.2421 28.8542 24.6975L20.0028 30.4234Z" fill="#CC2128"/>
<path d="M16.8984 5.51137V0.524892C16.8984 0.235023 16.6634 0 16.3735 0C16.0837 0 15.8486 0.235023 15.8486 0.524892V5.51137C15.8486 5.80124 16.0837 6.03626 16.3735 6.03626C16.6634 6.03626 16.8984 5.80124 16.8984 5.51137Z" fill="#CC2128"/>
<path d="M20.8369 5.51191V3.14989C20.8369 2.86002 20.6019 2.625 20.312 2.625C20.0221 2.625 19.7871 2.86002 19.7871 3.14989V5.51191C19.7871 5.80178 20.0221 6.0368 20.312 6.0368C20.6019 6.0368 20.8369 5.80178 20.8369 5.51191Z" fill="#CC2128"/>
<path d="M12.9629 5.51191V3.14989C12.9629 2.86002 12.7278 2.625 12.438 2.625C12.1481 2.625 11.9131 2.86002 11.9131 3.14989V5.51191C11.9131 5.80178 12.1481 6.0368 12.438 6.0368C12.7278 6.0368 12.9629 5.80178 12.9629 5.51191Z" fill="#CC2128"/>
</g>
<defs>
<clipPath id="clip0">
<rect width="32" height="32" fill="white"/>
</clipPath>
</defs>
</svg>
